<svg width="36" height="36" viewBox="0 0 36 36" fill="none" xmlns="http://www.w3.org/2000/svg">
<path d="M20.5981 32.6545L21.4113 31.2808L19.4749 30.1347L18.6618 31.5085L20.5981 32.6545ZM14.5887 31.2808L15.4018 32.6545L17.338 31.5085L16.5249 30.1347L14.5887 31.2808ZM18.6618 31.5085C18.3727 31.9969 17.6272 31.9969 17.338 31.5085L15.4018 32.6545C16.5622 34.615 19.4377 34.615 20.5981 32.6545L18.6618 31.5085ZM15.75 4.125H20.25V1.875H15.75V4.125ZM31.875 15.75V17.25H34.125V15.75H31.875ZM4.125 17.25V15.75H1.875V17.25H4.125ZM1.875 17.25C1.875 18.9819 1.87439 20.3371 1.94897 21.4302C2.02425 22.5334 2.17985 23.4516 2.53154 24.3006L4.61027 23.4396C4.39106 22.9104 4.26122 22.2657 4.19376 21.277C4.12562 20.2783 4.125 19.0126 4.125 17.25H1.875ZM11.7037 27.3624C9.82059 27.3298 8.83384 27.2101 8.06038 26.8897L7.19936 28.9684C8.40681 29.4685 9.78207 29.5795 11.665 29.6119L11.7037 27.3624ZM2.53154 24.3006C3.40692 26.4139 5.08599 28.093 7.19936 28.9684L8.06038 26.8897C6.49833 26.2426 5.25729 25.0017 4.61027 23.4396L2.53154 24.3006ZM31.875 17.25C31.875 19.0126 31.8744 20.2783 31.8063 21.277C31.7388 22.2657 31.6089 22.9104 31.3897 23.4396L33.4684 24.3006C33.8202 23.4516 33.9757 22.5334 34.051 21.4302C34.1256 20.3371 34.125 18.9819 34.125 17.25H31.875ZM24.3349 29.6119C26.2179 29.5795 27.5932 29.4685 28.8006 28.9684L27.9396 26.8897C27.1662 27.2101 26.1793 27.3298 24.2962 27.3624L24.3349 29.6119ZM31.3897 23.4396C30.7426 25.0017 29.5017 26.2426 27.9396 26.8897L28.8006 28.9684C30.9139 28.093 32.593 26.4139 33.4684 24.3006L31.3897 23.4396ZM20.25 4.125C22.7268 4.125 24.5055 4.12619 25.8928 4.2581C27.2635 4.38842 28.1356 4.63835 28.8309 5.06442L30.0066 3.14598C28.8982 2.46686 27.6411 2.16419 26.1058 2.01821C24.5872 1.87382 22.6833 1.875 20.25 1.875V4.125ZM34.125 15.75C34.125 13.3167 34.1262 11.4127 33.9817 9.89416C33.8358 8.35884 33.5331 7.10168 32.854 5.99344L30.9355 7.16907C31.3617 7.86436 31.6116 8.73651 31.7419 10.1071C31.8738 11.4945 31.875 13.2731 31.875 15.75H34.125ZM28.8309 5.06442C29.6887 5.59008 30.4099 6.31128 30.9355 7.16907L32.854 5.99344C32.1429 4.83291 31.1671 3.85716 30.0066 3.14598L28.8309 5.06442ZM15.75 1.875C13.3167 1.875 11.4127 1.87382 9.89416 2.01821C8.35884 2.16419 7.10168 2.46686 5.99344 3.14598L7.16907 5.06442C7.86436 4.63835 8.73651 4.38842 10.1071 4.2581C11.4945 4.12619 13.2731 4.125 15.75 4.125V1.875ZM4.125 15.75C4.125 13.2731 4.12619 11.4945 4.2581 10.1071C4.38842 8.73651 4.63835 7.86436 5.06442 7.16907L3.14598 5.99344C2.46686 7.10168 2.16419 8.35884 2.01821 9.89416C1.87382 11.4127 1.875 13.3167 1.875 15.75H4.125ZM5.99344 3.14598C4.83291 3.85716 3.85716 4.83291 3.14598 5.99344L5.06442 7.16907C5.59008 6.31128 6.31128 5.59008 7.16907 5.06442L5.99344 3.14598ZM16.5249 30.1347C16.2204 29.6202 15.9531 29.1661 15.6931 28.8094C15.4192 28.4338 15.1053 28.0956 14.6698 27.8422L13.5386 29.7873C13.6097 29.8285 13.7066 29.904 13.8748 30.1347C14.0568 30.3846 14.2625 30.7297 14.5887 31.2808L16.5249 30.1347ZM11.665 29.6119C12.3236 29.6233 12.7408 29.6317 13.0588 29.6668C13.356 29.6998 13.4712 29.748 13.5386 29.7873L14.6698 27.8422C14.2306 27.5868 13.7737 27.4822 13.3065 27.4305C12.8601 27.3811 12.3206 27.373 11.7037 27.3624L11.665 29.6119ZM21.4113 31.2808C21.7374 30.7297 21.943 30.3846 22.1251 30.1347C22.2933 29.904 22.3902 29.8285 22.4613 29.7873L21.3301 27.8422C20.8947 28.0956 20.5806 28.4338 20.3068 28.8094C20.0469 29.1661 19.7796 29.6202 19.4749 30.1347L21.4113 31.2808ZM24.2962 27.3624C23.6793 27.373 23.1399 27.3811 22.6935 27.4305C22.2262 27.4822 21.7693 27.5868 21.3301 27.8422L22.4613 29.7873C22.5288 29.748 22.644 29.6998 22.9411 29.6668C23.2591 29.6317 23.6763 29.6233 24.3349 29.6119L24.2962 27.3624Z" fill="white"/>
<path d="M12 13.5H24" stroke="white" stroke-width="2.25" stroke-linecap="round"/>
<path d="M12 18.75H20.25" stroke="white" stroke-width="2.25" stroke-linecap="round"/>
</svg>
