<svg width="16" height="17" viewBox="0 0 16 17" fill="none" xmlns="http://www.w3.org/2000/svg">
<path d="M3.50068 3.30846L8.00014 7.80804L12.4996 3.30846C12.6743 3.13375 12.9492 3.12031 13.1394 3.26814L13.1913 3.31478C13.3806 3.50405 13.3806 3.81092 13.1913 4.0002L8.69176 8.49965L13.1913 12.9991C13.3661 13.1738 13.3795 13.4487 13.2317 13.6389L13.185 13.6908C12.9957 13.8801 12.6889 13.8801 12.4996 13.6908L8.00014 9.19126L3.50068 13.6908C3.32597 13.8656 3.05105 13.879 2.86092 13.7312L2.80895 13.6845C2.61967 13.4952 2.61967 13.1884 2.80895 12.9991L7.30853 8.49965L2.80895 4.0002C2.63423 3.82548 2.62079 3.55057 2.76863 3.36044L2.81528 3.30846C3.00455 3.11919 3.31141 3.11919 3.50068 3.30846ZM3.15165 3.65749L7.99396 8.49965L3.15165 13.3418L3.15798 13.3481L8.00014 8.50584L12.8423 13.3481L12.8486 13.3418L8.00633 8.49965L12.8486 3.65749L12.8423 3.65117L8.00014 8.49346L3.15798 3.65117L3.15165 3.65749Z" fill="#3A3C64"/>
</svg>
