<svg width="24" height="25" viewBox="0 0 24 25" fill="none" xmlns="http://www.w3.org/2000/svg">
<rect y="0.803589" width="24" height="24" rx="12" fill="#F6F6F8"/>
<path fill-rule="evenodd" clip-rule="evenodd" d="M6 12.8036C6 12.2513 6.44772 11.8036 7 11.8036C7.55228 11.8036 8 12.2513 8 12.8036C8 13.3559 7.55228 13.8036 7 13.8036C6.44772 13.8036 6 13.3559 6 12.8036ZM11 12.8036C11 12.2513 11.4477 11.8036 12 11.8036C12.5523 11.8036 13 12.2513 13 12.8036C13 13.3559 12.5523 13.8036 12 13.8036C11.4477 13.8036 11 13.3559 11 12.8036ZM17 11.8036C16.4477 11.8036 16 12.2513 16 12.8036C16 13.3559 16.4477 13.8036 17 13.8036C17.5523 13.8036 18 13.3559 18 12.8036C18 12.2513 17.5523 11.8036 17 11.8036Z" fill="#3A3C64"/>
</svg>
