<svg width="48" height="48" viewBox="0 0 48 48" fill="none" xmlns="http://www.w3.org/2000/svg">
<path fill-rule="evenodd" clip-rule="evenodd" d="M16.5848 36.3682C18.4236 36.6692 20.3164 35.8309 21.3889 35.1325C25.1774 32.6656 26.7109 31.2223 29.2861 26.8024C30.1796 25.2689 31.2193 24.3675 31.4916 24.2767C31.3713 23.7956 30.1566 23.05 26.2598 23.9159C26.5004 23.525 27.7392 22.7794 30.77 22.9237C30.77 22.9237 35.5507 15.3467 34.8291 11.3777C34.6164 11.4487 34.3992 11.524 34.1782 11.6007C32.9939 12.0117 31.7015 12.4602 30.4092 12.4602C31.8524 11.7386 34.6487 10.8365 34.6487 10.8365C35.9115 8.58147 36.9038 2.8085 33.8369 0.102421C30.2288 -0.709408 24.4558 3.43992 21.5693 7.76964L23.644 11.919L20.8477 8.85207C19.224 10.7463 16.518 15.2565 16.6082 16.1585C16.6984 17.0605 18.5926 19.496 18.5926 19.496C18.5926 19.496 16.6082 18.1429 16.3375 18.2331C16.0669 18.3233 14.1727 22.9237 14.2629 23.6453C14.41 23.8659 14.6503 24.1265 14.9241 24.4234L14.9241 24.4234C15.658 25.2191 16.6327 26.2759 16.6984 27.524C15.5257 25.9004 14.2629 24.4571 13.9021 24.5473C13.5784 24.7901 13.5201 26.0476 13.4688 27.1516C13.4629 27.2783 13.4571 27.4031 13.4511 27.524C13.426 28.0213 13.387 28.5259 13.348 29.0293C13.1491 31.5969 12.9527 34.1332 14.6356 35.5148C13.8471 38.8427 13.2813 42.3463 13.0119 46.0003L13.0118 46.0023L13.0115 46.0045L13.0101 46.0214C13.0089 46.0359 13.0074 46.0566 13.0059 46.0828C13.0029 46.135 13 46.2089 13 46.2974C13 46.4734 13.0116 46.7117 13.0599 46.9529C13.1076 47.1917 13.1943 47.4492 13.3552 47.6504C13.5221 47.859 13.7642 48 14.0937 48C14.43 48 14.701 47.9402 14.9167 47.8237C15.1346 47.706 15.2839 47.5368 15.3856 47.3397C15.5755 46.9714 15.6014 46.494 15.6248 46.0644L15.6269 46.0254C15.7901 43.0404 16.0438 39.8032 16.5848 36.3682ZM13.3716 46.0288C14.5468 30.08 21.4011 17.0141 27.7289 8.94895C17.4181 22.8015 15.8209 35.8698 15.2666 46.0057C15.2411 46.4714 15.2176 46.8781 15.0649 47.1743C14.9923 47.3151 14.8916 47.4272 14.7452 47.5063C14.5965 47.5866 14.3888 47.6392 14.0937 47.6392C13.882 47.6392 13.7407 47.5547 13.637 47.425C13.5273 47.2879 13.4561 47.0944 13.4137 46.8822C13.3717 46.6724 13.3608 46.4597 13.3608 46.2974C13.3608 46.2168 13.3635 46.1498 13.3662 46.1034C13.3675 46.0801 13.3688 46.0621 13.3697 46.0502L13.3709 46.0369L13.3711 46.034L13.3712 46.0335L13.3713 46.0335L13.3716 46.0288Z" fill="#656AE6"/>
</svg>
