<svg width="24" height="24" viewBox="0 0 24 24" fill="none" xmlns="http://www.w3.org/2000/svg">
<path d="M9.3009 14.6945L19.102 4.89705M9.5795 15.1351L11.8019 19.58C12.339 20.6541 12.6075 21.1912 12.9458 21.3352C13.2394 21.4602 13.575 21.4375 13.8492 21.2743C14.1651 21.0862 14.3591 20.5179 14.7472 19.3814L18.9463 7.08397C19.2845 6.09372 19.4535 5.59859 19.3378 5.27105C19.2371 4.98611 19.013 4.76197 18.7281 4.6613C18.4005 4.54558 17.9054 4.71465 16.9151 5.05278L4.61763 9.25193C3.48114 9.64 2.91289 9.83404 2.72478 10.15C2.56153 10.4241 2.53891 10.7597 2.66389 11.0532C2.80791 11.3915 3.34498 11.6601 4.41912 12.1971L8.86397 14.4196C9.041 14.5081 9.1295 14.5523 9.2061 14.6114C9.2742 14.6639 9.3352 14.7249 9.3876 14.7929C9.4468 14.8696 9.491 14.9581 9.5795 15.1351Z" stroke="white" stroke-width="1.4" stroke-linecap="round" stroke-linejoin="round"/>
</svg>
